<?xml version="1.0" standalone="no"?>
<!DOCTYPE svg PUBLIC "-//W3C//DTD SVG 20010904//EN"
 "http://www.w3.org/TR/2001/REC-SVG-20010904/DTD/svg10.dtd">
<svg version="1.0" xmlns="http://www.w3.org/2000/svg"
 width="300.000000pt" height="300.000000pt" viewBox="0 0 300.000000 300.000000"
 preserveAspectRatio="xMidYMid meet">
<metadata>
Created by potrace 1.14, written by Peter Selinger 2001-2017
</metadata>
<g transform="translate(0.000000,300.000000) scale(0.100000,-0.100000)"
fill="#000000" stroke="none">
<path d="M2114 2838 c-133 -20 -207 -90 -195 -184 0 -6 21 8 45 32 44 42 97
75 146 89 18 5 14 -1 -16 -22 -106 -73 -170 -149 -179 -213 -4 -25 -8 -46 -10
-48 -2 -2 -30 -4 -64 -4 -34 -1 -62 -4 -62 -7 -4 -15 -6 -1658 -3 -1672 4 -13
60 -15 504 -15 l500 -1 0 154 0 153 -349 0 c-324 0 -349 1 -352 18 -3 9 -4
322 -3 694 l1 677 -76 -2 c-83 -1 -89 4 -64 56 9 17 21 27 36 27 33 0 118 43
154 78 17 17 44 52 59 79 15 26 38 65 51 86 l24 38 -48 -2 c-26 -2 -71 -6 -99
-11z"/>
<path d="M1718 2805 c-9 -15 -3 -117 9 -146 23 -54 104 -98 160 -87 14 3 18
13 18 43 0 22 -4 53 -10 69 -12 34 -59 76 -86 76 -26 0 -76 26 -81 42 -3 7 -7
8 -10 3z"/>
<path d="M948 2695 c-108 -29 -205 -129 -224 -232 -4 -22 -14 -35 -35 -43 -76
-32 -183 -121 -246 -205 -115 -153 -172 -352 -167 -591 2 -104 7 -150 29 -263
19 -101 89 -257 153 -343 154 -208 442 -303 745 -246 256 48 436 222 522 505
11 38 11 43 -4 47 -65 20 -174 46 -190 46 -14 0 -21 -10 -26 -37 -16 -93 -99
-226 -183 -295 -46 -38 -163 -84 -177 -70 -12 12 -33 10 -29 -3 4 -10 -14 -13
-80 -13 -65 0 -86 3 -86 13 0 13 23 15 35 3 3 -3 22 -1 41 5 27 8 40 8 55 -1
16 -11 18 -9 16 10 -2 25 30 38 43 17 5 -7 7 -2 7 14 -1 16 -6 22 -12 16 -12
-12 -45 -12 -45 1 0 5 -8 6 -17 3 -15 -6 -15 -7 0 -12 26 -10 5 -28 -40 -36
-34 -5 -43 -4 -43 8 0 8 15 19 33 25 18 6 23 11 12 10 -52 -1 -63 16 -20 32
14 5 25 12 25 14 0 3 -7 3 -15 0 -24 -10 -41 7 -21 22 17 12 16 13 -2 23 -11
6 -22 8 -25 4 -4 -3 -13 0 -22 7 -13 10 -15 9 -15 -7 0 -16 5 -19 24 -16 23 5
24 2 22 -31 -2 -20 -6 -39 -9 -42 -9 -9 -27 6 -27 22 0 10 5 12 13 8 8 -5 7
-2 -2 9 -20 25 -25 14 -22 -53 2 -68 0 -69 -70 -45 -84 29 -134 60 -194 120
-71 71 -112 150 -146 280 -31 121 -34 368 -6 490 34 147 103 264 204 349 22
19 23 18 76 -35 29 -30 72 -63 95 -73 40 -18 42 -21 42 -63 0 -34 4 -43 18
-44 9 -1 52 -2 96 -4 46 -1 81 -7 86 -14 4 -7 6 8 6 32 -1 40 -3 43 -19 33
-15 -10 -16 -11 -2 -14 22 -5 13 -26 -12 -30 -18 -3 -20 2 -18 35 1 21 3 41 4
46 2 11 31 8 31 -3 0 -5 4 -10 10 -10 5 0 7 6 4 14 -3 8 6 18 24 25 32 13 100
73 124 109 l16 23 35 -31 c45 -39 97 -118 127 -192 13 -32 26 -58 29 -58 8 0
126 28 173 41 l38 10 -25 66 c-14 36 -39 91 -57 121 -41 73 -151 180 -224 219
-53 28 -61 37 -80 85 -61 152 -220 234 -376 193z m29 -613 c7 -4 9 -13 4 -21
-10 -16 -31 -6 -31 15 0 16 9 18 27 6z m113 -7 c0 -2 -15 -11 -32 -19 -31 -14
-32 -15 -5 -11 15 2 27 -1 27 -6 0 -5 0 -12 0 -16 1 -10 -59 -23 -76 -16 -7 2
-10 11 -7 19 3 8 10 11 17 8 6 -3 3 1 -8 10 -10 8 -16 19 -13 23 6 10 97 17
97 8z m-103 -49 c-6 -17 -31 -13 -35 6 -2 12 2 15 18 11 11 -3 19 -11 17 -17z
m-8 -1027 c-12 -23 -29 -16 -29 11 0 13 5 17 20 13 16 -4 18 -9 9 -24z"/>
<path d="M937 1918 c1 -40 2 -79 3 -85 0 -7 11 -13 25 -13 28 0 32 -12 10 -30
-12 -10 -16 -9 -21 4 -8 21 -20 20 -20 -2 0 -15 9 -18 53 -20 29 0 55 3 58 8
3 5 -7 8 -21 7 -23 -2 -27 2 -29 28 -1 17 3 34 9 38 8 6 7 10 -2 14 -6 2 -10
9 -7 14 4 5 -1 6 -9 3 -18 -7 -22 -24 -6 -24 5 0 7 -7 4 -15 -13 -32 -33 -16
-32 25 0 39 2 41 29 36 16 -2 29 0 29 5 0 5 -4 9 -10 9 -5 0 -7 14 -5 30 4 30
-9 41 -19 18 -3 -10 -9 -8 -19 5 -8 9 -16 17 -18 17 -2 0 -3 -33 -2 -72z m53
36 c0 -1 -3 -9 -6 -18 -8 -22 -34 -20 -34 2 0 11 7 18 20 18 11 0 20 -1 20 -2z"/>
<path d="M1045 1963 l-40 -13 38 6 c34 4 38 3 35 -13 -2 -10 -10 -17 -16 -15
-7 1 -12 -2 -12 -8 0 -5 9 -10 20 -10 11 0 20 -5 20 -11 0 -6 -9 -13 -20 -16
-25 -7 -27 -21 -2 -19 13 1 16 -5 14 -26 -3 -25 0 -28 28 -28 25 0 31 -4 28
-17 -2 -10 -11 -17 -19 -15 -11 3 -11 1 -2 -9 19 -20 28 -3 28 57 1 35 -3 50
-9 44 -17 -17 -48 -12 -44 8 3 11 12 16 29 15 14 -1 26 4 26 11 0 8 -11 11
-29 8 -20 -3 -28 0 -28 11 0 20 20 27 44 15 14 -8 17 -7 14 4 -3 7 -16 12 -31
11 -14 -1 -27 4 -29 11 -2 9 -11 9 -43 -1z m93 -125 c-7 -20 -48 -23 -48 -4 0
11 9 16 26 16 16 0 24 -5 22 -12z"/>
<path d="M1010 1822 c0 -5 14 -7 30 -4 17 2 30 6 30 8 0 2 -13 4 -30 4 -16 0
-30 -4 -30 -8z"/>
<path d="M1073 1793 c-10 -4 -9 -8 2 -20 18 -18 11 -35 -12 -26 -11 4 -14 3
-9 -5 4 -7 14 -12 22 -12 8 0 13 -4 10 -8 -3 -5 10 -8 28 -8 25 1 32 5 33 21
1 11 -1 14 -4 8 -3 -7 -16 -13 -30 -13 -18 0 -24 4 -19 15 8 21 -6 53 -21 48z"/>
<path d="M938 1676 l-3 -85 28 4 c28 6 33 0 18 -24 -8 -12 -12 -12 -25 -2 -14
11 -16 11 -17 -5 0 -16 0 -348 1 -395 0 -12 11 -18 35 -21 33 -4 49 6 24 14
-21 7 21 38 52 38 16 0 29 -3 29 -7 0 -5 15 -8 33 -9 19 0 34 5 34 11 0 6 -12
9 -29 7 -21 -3 -28 0 -28 12 0 11 9 16 29 16 28 0 30 5 22 53 0 4 -9 7 -18 7
-15 0 -15 -1 2 -13 21 -16 12 -37 -16 -37 -16 0 -19 6 -17 28 3 26 1 27 -42
28 -62 1 -64 2 -51 18 18 21 60 26 77 8 11 -11 18 -12 27 -3 8 8 8 11 -1 11
-7 0 -12 7 -12 16 0 12 7 15 29 12 23 -3 29 -1 28 13 -1 13 -5 14 -19 6 -13
-9 -21 -8 -30 1 -16 16 -33 16 -20 -1 15 -18 2 -32 -30 -35 -15 -1 -33 -3 -40
-4 -7 -2 -12 3 -10 11 3 12 0 12 -12 2 -17 -14 -36 -7 -36 13 0 10 10 12 33 9
18 -2 44 1 57 6 21 9 20 10 -13 5 -31 -5 -36 -4 -31 10 3 9 12 16 20 16 8 0
14 5 14 11 0 5 -4 7 -10 4 -15 -9 -30 4 -23 20 3 8 16 15 29 15 13 0 24 4 24
8 0 5 -13 7 -30 4 -37 -5 -40 15 -5 28 31 12 32 17 3 16 -15 -1 -22 4 -20 14
3 11 -2 10 -17 -4 -25 -23 -26 -27 -6 -20 17 7 19 -4 6 -25 -14 -22 -31 -2
-31 37 l0 37 60 0 c67 0 99 -18 59 -34 -17 -7 -19 -10 -6 -10 9 -1 17 -5 17
-10 0 -6 16 -9 35 -8 35 2 44 10 25 22 -5 3 -10 2 -10 -2 0 -5 -9 -9 -21 -10
-14 -1 -19 3 -17 15 2 11 13 17 30 17 19 -1 26 4 25 17 -1 12 -5 14 -11 8 -14
-14 -46 -13 -46 1 0 8 -16 10 -50 5 -55 -7 -69 7 -24 24 32 13 77 13 69 1 -3
-6 3 -9 14 -8 19 1 19 2 3 17 -14 13 -25 15 -60 7 -48 -10 -63 -4 -41 18 17
17 79 29 79 15 0 -5 7 -10 16 -10 13 0 14 3 5 14 -6 8 -11 18 -10 22 5 28 -4
32 -61 31 -61 -2 -68 -5 -49 -24 8 -8 8 -13 0 -17 -19 -12 -29 2 -29 43 -1 33
2 38 19 34 10 -3 16 -10 12 -16 -4 -6 -1 -7 8 -1 8 4 20 9 27 10 8 2 17 6 20
10 4 4 -1 4 -10 1 -10 -3 -24 0 -32 8 -11 11 -15 12 -19 2 -3 -9 -7 -9 -20 1
-14 12 -16 4 -19 -72z m147 6 c17 -3 -11 -23 -41 -28 -16 -3 -41 -16 -55 -30
-27 -26 -39 -23 -39 8 0 16 3 17 20 8 11 -6 21 -8 21 -5 5 20 4 31 -2 40 -6 9
58 13 96 7z m-99 -253 c-2 -37 -23 -60 -32 -35 -4 11 -1 22 7 27 10 6 10 9 2
9 -7 0 -13 9 -13 19 0 14 5 18 19 14 13 -3 18 -13 17 -34z m4 -109 c0 -12 -26
-30 -33 -23 -4 3 -7 14 -7 24 0 12 6 16 20 12 11 -3 20 -9 20 -13z m0 -38 c-1
-17 -19 -34 -29 -28 -18 12 -13 32 9 33 11 1 20 -1 20 -5z m93 -7 c1 -5 -15
-13 -35 -18 -21 -5 -38 -13 -38 -18 0 -5 11 -4 24 3 14 6 32 8 40 5 25 -10 8
-33 -25 -35 -17 -1 -35 -3 -41 -5 -6 -1 -12 13 -14 31 -2 26 2 35 19 42 27 11
67 8 70 -5z m-102 -58 c-7 -7 -7 -14 1 -24 8 -10 8 -17 -1 -26 -10 -9 -16 -8
-27 8 -8 11 -11 21 -6 23 5 1 7 14 4 28 -4 24 -3 25 18 14 16 -8 19 -15 11
-23z"/>
<path d="M1126 1685 c-17 -13 -18 -15 -3 -15 20 0 22 -11 5 -28 -9 -9 -9 -12
1 -12 9 0 11 -8 6 -27 -4 -16 -3 -24 2 -20 4 5 8 33 8 63 0 30 0 54 0 54 0 0
-9 -7 -19 -15z"/>
<path d="M1074 1465 c8 -8 26 -15 40 -15 16 0 26 -6 26 -15 0 -16 -46 -22 -52
-7 -1 5 -14 5 -28 1 l-25 -7 28 -1 c15 -1 27 -4 27 -8 0 -5 13 -8 28 -8 27 0
29 3 28 37 0 24 -4 34 -10 28 -13 -13 -46 -13 -46 0 0 6 -7 10 -16 10 -14 0
-14 -2 0 -15z"/>
<path d="M1130 1333 c0 -5 5 -15 10 -23 7 -12 9 -10 7 8 -1 19 -17 33 -17 15z"/>
<path d="M1072 1158 c3 -7 21 -16 41 -19 30 -5 35 -3 34 13 -1 12 -5 14 -11 8
-13 -13 -46 -13 -46 0 0 6 -5 10 -11 10 -6 0 -9 -6 -7 -12z"/>
<path d="M1055 1119 l-30 -7 28 -1 c30 -1 38 -27 10 -34 -17 -4 -17 -5 0 -6 9
0 17 -5 17 -11 0 -5 15 -10 33 -10 31 0 33 2 33 33 -1 30 -3 33 -24 29 -13 -3
-27 -1 -31 5 -3 5 -19 6 -36 2z m80 -39 c0 -8 -10 -16 -22 -18 -18 -3 -23 2
-23 18 0 16 5 21 23 18 12 -2 22 -10 22 -18z"/>
<path d="M675 730 c-253 -3 134 -5 860 -5 726 0 1181 1 1010 2 -748 7 -1444 8
-1870 3z"/>
<path d="M422 609 c-53 -26 -74 -68 -75 -144 -1 -51 3 -69 23 -98 50 -74 169
-84 220 -20 26 34 25 47 -5 61 -15 7 -25 8 -25 2 0 -6 -9 -19 -20 -30 -28 -28
-75 -26 -107 6 -23 23 -25 31 -21 86 4 48 9 65 27 79 32 26 86 25 105 -3 13
-19 19 -20 41 -10 14 6 25 16 25 21 0 14 -59 61 -78 62 -9 1 -30 2 -45 3 -15
2 -45 -5 -65 -15z"/>
<path d="M727 610 c-56 -30 -72 -62 -72 -145 0 -59 4 -79 21 -102 63 -85 202
-73 245 20 43 96 5 215 -75 233 -56 13 -87 11 -119 -6z m122 -64 c41 -43 25
-164 -25 -183 -8 -3 -30 -2 -50 1 -28 6 -38 14 -49 40 -8 18 -13 46 -11 62 2
16 4 37 5 47 3 54 89 76 130 33z"/>
<path d="M1342 620 c-118 -26 -145 -215 -41 -292 31 -23 103 -27 148 -8 95 39
104 237 13 284 -36 19 -79 24 -120 16z m89 -69 c18 -14 23 -31 27 -79 4 -55 2
-63 -21 -86 -27 -27 -65 -33 -97 -16 -44 24 -50 140 -9 181 24 24 70 25 100 0z"/>
<path d="M1644 619 c-43 -12 -67 -43 -67 -84 0 -47 25 -72 94 -91 40 -11 60
-23 65 -36 15 -47 -55 -65 -108 -27 -28 20 -31 20 -46 5 -31 -30 22 -76 90
-78 63 -2 79 2 103 28 54 58 20 143 -63 159 -55 10 -74 23 -70 48 2 18 11 23
41 25 26 2 45 -2 57 -13 17 -15 19 -15 34 7 16 22 15 24 -5 41 -12 9 -29 17
-38 18 -9 0 -25 2 -36 4 -11 1 -34 -1 -51 -6z"/>
<path d="M1903 618 c-65 -17 -85 -98 -37 -143 15 -14 32 -25 38 -25 31 0 87
-23 96 -40 25 -47 -58 -68 -106 -26 l-28 23 -18 -22 c-23 -30 -24 -30 16 -54
94 -58 216 -10 202 79 -7 44 -45 78 -96 86 -22 4 -48 12 -57 20 -45 33 43 72
91 41 20 -14 24 -13 34 4 18 28 15 35 -18 49 -39 16 -77 19 -117 8z"/>
<path d="M2509 622 c-51 -6 -87 -69 -68 -119 9 -24 45 -51 75 -57 76 -15 100
-39 73 -73 -17 -19 -83 -12 -110 13 -18 17 -21 17 -37 1 -13 -13 -14 -21 -6
-35 21 -33 75 -49 150 -44 68 5 100 109 48 157 -14 13 -44 27 -67 30 -55 9
-80 31 -66 57 9 16 18 19 47 15 21 -3 47 -8 59 -12 16 -5 24 -2 32 14 10 17 8
23 -11 35 -25 16 -76 24 -119 18z"/>
<path d="M1002 466 l-1 -156 103 0 102 0 0 25 c0 26 -7 29 -73 25 -69 -3 -69
-3 -68 133 l0 122 -32 3 -31 3 0 -155z"/>
<path d="M2123 496 c2 -116 4 -127 26 -150 62 -66 184 -51 215 27 8 20 13 72
12 137 l-1 105 -30 0 -30 0 -1 -100 c-2 -126 -1 -121 -20 -139 -19 -20 -64
-21 -89 -2 -17 12 -19 28 -20 127 l0 114 -32 3 -32 3 2 -125z"/>
</g>
</svg>
